<?xml version="1.0" standalone="no"?>
<!DOCTYPE svg PUBLIC "-//W3C//DTD SVG 20010904//EN"
 "http://www.w3.org/TR/2001/REC-SVG-20010904/DTD/svg10.dtd">
<svg version="1.0" xmlns="http://www.w3.org/2000/svg"
 width="500.000000pt" height="500.000000pt" viewBox="0 0 500.000000 500.000000"
 preserveAspectRatio="xMidYMid meet">
<metadata>
Created by potrace 1.16, written by Peter Selinger 2001-2019
</metadata>
<g transform="translate(0.000000,500.000000) scale(0.100000,-0.100000)"
fill="#000000" stroke="none">
<path d="M1780 4473 c-71 -7 -256 -56 -300 -78 -101 -52 -171 -140 -204 -255
-8 -30 -33 -202 -56 -382 -44 -361 -57 -412 -117 -470 -45 -42 -65 -53 -115
-62 -21 -4 -40 -11 -43 -16 -7 -12 -45 -323 -45 -372 0 -35 2 -38 40 -48 54
-14 107 -63 120 -108 17 -62 12 -140 -30 -473 -35 -279 -39 -328 -30 -385 19
-117 67 -181 175 -231 59 -28 63 -28 276 -31 186 -3 217 -1 228 12 9 11 30 16
62 16 36 0 51 5 58 18 5 9 21 108 36 220 30 227 29 232 -35 232 -51 0 -96 38
-111 92 -9 34 -5 86 21 292 47 366 35 466 -67 555 l-44 39 35 21 c18 12 52 41
74 65 84 91 105 161 147 487 19 153 40 279 48 295 30 57 85 94 140 94 19 0 40
7 48 16 12 15 58 328 59 406 0 27 -5 40 -19 48 -18 9 -269 12 -351 3z"/>
<path d="M3390 4473 c-30 -2 -59 -8 -64 -14 -6 -5 -28 -9 -51 -9 -72 0 -74 -4
-101 -221 -13 -107 -23 -205 -22 -219 3 -22 9 -26 51 -32 76 -10 117 -60 117
-141 0 -24 -12 -136 -26 -248 -33 -261 -30 -389 9 -465 14 -29 43 -66 64 -84
l38 -32 -25 -16 c-142 -96 -175 -178 -226 -564 -30 -231 -39 -279 -60 -315
-29 -50 -79 -83 -126 -83 -63 0 -65 -6 -94 -233 -21 -170 -23 -211 -13 -223
11 -13 42 -15 218 -12 292 6 422 39 531 136 57 51 105 130 124 207 8 33 31
197 51 365 20 169 45 335 56 373 26 90 82 148 157 166 28 7 55 18 60 24 12 14
56 382 49 401 -3 7 -25 18 -49 24 -48 12 -90 51 -108 97 -19 50 -13 156 25
470 23 185 35 323 32 361 -12 157 -119 262 -290 284 -70 9 -214 10 -327 3z"/>
<path d="M2190 3815 c-7 -8 -27 -15 -45 -15 -18 0 -37 -6 -43 -13 -8 -10 34
-212 164 -778 96 -420 179 -774 184 -786 9 -23 12 -23 199 -23 151 0 192 3
204 14 8 8 32 16 53 18 26 2 40 8 42 19 4 23 -347 1551 -360 1566 -17 20 -381
18 -398 -2z"/>
<path d="M993 1393 c-13 -2 -23 -5 -24 -6 -9 -30 -83 -685 -78 -691 12 -14
199 -2 208 13 5 7 14 67 21 134 7 67 16 131 20 142 13 33 22 -143 12 -215 -5
-36 -8 -68 -5 -72 5 -10 179 -9 213 1 24 7 25 9 67 341 23 184 42 341 43 348
0 13 -130 17 -189 6 -32 -7 -32 -7 -24 -53 9 -58 7 -199 -5 -230 -6 -16 -13
20 -26 133 l-19 156 -96 -1 c-53 -1 -106 -4 -118 -6z"/>
<path d="M1573 1390 c-13 -5 -23 -14 -23 -19 0 -5 -18 -156 -40 -335 -22 -178
-40 -330 -40 -336 0 -15 404 -10 419 5 6 6 13 43 17 83 l7 72 -103 0 -102 0 6
31 c3 17 6 43 6 56 0 22 3 25 28 20 43 -8 83 3 91 27 5 11 11 47 15 79 l6 57
-53 0 c-30 0 -56 2 -58 5 -3 2 -3 26 1 52 l5 48 62 -3 c83 -5 141 5 147 26 2
9 8 45 11 80 l7 62 -194 -1 c-106 0 -203 -4 -215 -9z"/>
<path d="M2073 1393 c-25 -5 -29 -15 -38 -100 l-7 -63 66 0 c36 0 66 -3 66 -7
0 -5 -14 -114 -30 -243 -16 -129 -30 -248 -30 -264 l0 -28 100 4 c55 2 104 8
110 14 6 6 25 128 43 270 l32 259 40 0 c93 2 93 2 99 45 3 22 9 58 12 80 l6
40 -224 -1 c-122 -1 -233 -4 -245 -6z"/>
<path d="M2633 1390 c-13 -5 -23 -14 -23 -19 0 -5 -18 -156 -40 -335 -22 -178
-40 -330 -40 -337 0 -15 195 -8 210 7 10 10 90 610 90 670 0 24 -2 24 -87 23
-49 0 -98 -4 -110 -9z"/>
<path d="M2933 1393 c-29 -6 -29 -2 2 -383 14 -167 25 -308 25 -313 0 -5 49
-8 110 -5 80 2 113 7 123 18 13 14 227 655 227 680 0 17 -204 10 -222 -8 -8
-8 -15 -58 -19 -135 -4 -67 -14 -144 -22 -172 -15 -49 -15 -45 -16 138 l-1
187 -92 -1 c-51 -1 -103 -4 -115 -6z"/>
<path d="M3520 1391 c-25 -7 -25 -9 -62 -306 -20 -165 -39 -321 -42 -347 l-7
-48 188 1 c103 1 199 4 212 8 27 7 37 33 43 108 l3 48 -102 3 -101 3 5 42 c7
64 10 70 37 63 35 -9 85 4 90 23 3 9 8 44 11 79 l7 62 -56 0 -56 0 0 33 c0 71
1 72 105 72 52 0 98 5 104 10 5 6 13 43 17 83 l7 72 -189 -1 c-104 -1 -200 -4
-214 -8z"/>
</g>
</svg>
